<svg width="507" height="520" viewBox="0 0 507 520" fill="none" xmlns="http://www.w3.org/2000/svg">
<path d="M203.455 281.944V235.134L253.494 210.118L303.533 235.134V281.944L253.494 306.96L203.455 281.944Z" stroke="#0D0A11" stroke-width="5"/>
<path d="M149.292 208.153L252.793 154.366L357.695 208.159V312.806L252.793 365.638L149.292 312.812V208.153Z" stroke="#0D0A11" stroke-width="5"/>
<path d="M100.963 182.938L253.495 106.552L406.026 182.938V333.713L253.495 409.466L100.962 333.713L100.963 182.938Z" stroke="#0D0A11" stroke-width="5"/>
<path d="M149.684 208.105L102.292 183.89" stroke="#0D0A11" stroke-width="5"/>
<path d="M357.09 208.215L405.808 183.323" stroke="#0D0A11" stroke-width="5"/>
<path d="M253.494 364.636V408.115" stroke="#0D0A11" stroke-width="5"/>
<path d="M253.494 461.158V514.933" stroke="#0D0A11" stroke-width="5"/>
<path d="M452.094 159.673L504 133.152" stroke="#0D0A11" stroke-width="5"/>
<path d="M54.9047 159.678L3 133.157" stroke="#0D0A11" stroke-width="5"/>
<path d="M54.0623 159.39L253.5 58.7558L452.937 159.39V360.608L253.5 461.242L54.0623 360.608V159.39Z" stroke="#0D0A11" stroke-width="5"/>
<path d="M3.24731 132.657L253.5 3L503.752 132.657V388.499L253.5 517L3.24731 388.499V132.657Z" stroke="#0D0A11" stroke-width="5"/>
</svg>
