<svg width="1574" height="314" viewBox="0 0 1574 314" fill="none" xmlns="http://www.w3.org/2000/svg">
<path d="M322.75 248.75C294.417 248.75 272.75 240.333 257.75 223.5C242.75 206.5 235.25 183.333 235.25 154C235.25 134.667 239.167 117.833 247 103.5C255 89 265.917 77.8333 279.75 70C293.583 62.1667 309.25 58.25 326.75 58.25C334.083 58.25 341.167 58.75 348 59.75C354.833 60.5833 362.917 61.75 372.25 63.25C379.25 64.4167 383.083 65 383.75 65L381 116.5H358L350.25 80.75C348.417 78.9167 345.25 77.4167 340.75 76.25C336.25 75.0833 330.5 74.5 323.5 74.5C309.333 74.5 297.917 81.0833 289.25 94.25C280.75 107.25 276.5 126.167 276.5 151C276.5 175 280.583 194.583 288.75 209.75C296.917 224.917 308.833 232.5 324.5 232.5C332 232.5 337.75 231.833 341.75 230.5C345.917 229 349.417 226.917 352.25 224.25L363.25 198.5L384.25 200.5L379.25 239.25C375.75 239.583 372.25 240.25 368.75 241.25C365.417 242.083 363.333 242.583 362.5 242.75C355.833 244.583 349.583 246 343.75 247C338.083 248.167 331.083 248.75 322.75 248.75ZM415.551 63.25L396.551 60V46.5L443.051 41H443.801L450.301 45.75L450.551 101.5L448.801 123.25C453.967 118.583 460.967 114.25 469.801 110.25C478.801 106.25 488.217 104.25 498.051 104.25C508.551 104.25 516.717 106.25 522.551 110.25C528.384 114.083 532.467 120 534.801 128C537.134 136 538.301 146.667 538.301 160V228.75L554.301 231V246H488.551V231L503.051 228.75V160C503.051 151.333 502.467 144.583 501.301 139.75C500.134 134.917 497.967 131.333 494.801 129C491.801 126.667 487.301 125.5 481.301 125.5C476.134 125.5 470.801 126.75 465.301 129.25C459.967 131.583 455.217 134.417 451.051 137.75V228.75L466.301 231V246H401.551V231L415.551 229V63.25ZM571.281 231.25L587.781 229.25V130.75L571.781 126.25V109L610.531 103.75H611.281L617.531 108.75V114.25L616.781 134.5H617.531C618.698 131.167 621.448 127.083 625.781 122.25C630.115 117.25 635.531 112.917 642.031 109.25C648.698 105.417 655.865 103.5 663.531 103.5C667.198 103.5 670.365 104 673.031 105V142.5C668.031 139 661.948 137.25 654.781 137.25C642.615 137.25 632.031 140.5 623.031 147V229L652.031 231.25V246H571.281V231.25ZM688.957 176.75C688.957 161.083 692.04 147.75 698.207 136.75C704.54 125.75 712.957 117.5 723.457 112C733.957 106.333 745.374 103.5 757.707 103.5C778.707 103.5 794.874 110 806.207 123C817.707 135.833 823.457 153.333 823.457 175.5C823.457 191.333 820.29 204.833 813.957 216C807.79 227 799.457 235.25 788.957 240.75C778.624 246.083 767.207 248.75 754.707 248.75C733.874 248.75 717.707 242.333 706.207 229.5C694.707 216.5 688.957 198.917 688.957 176.75ZM756.707 232.5C775.54 232.5 784.957 214.333 784.957 178C784.957 159 782.707 144.583 778.207 134.75C773.707 124.75 766.374 119.75 756.207 119.75C736.874 119.75 727.207 137.917 727.207 174.25C727.207 193.25 729.54 207.75 734.207 217.75C739.04 227.583 746.54 232.5 756.707 232.5ZM860.184 130.75L844.184 126.25V109L885.684 103.75H886.434L892.684 108.75V118.5L892.434 124.5C898.267 119 905.85 114.25 915.184 110.25C924.517 106.25 933.934 104.25 943.434 104.25C953.6 104.25 961.517 106.167 967.184 110C973.017 113.667 977.184 119.5 979.684 127.5C982.184 135.5 983.434 146.333 983.434 160V229L998.684 231V246H934.184V231L947.684 229V160C947.684 151.333 947.1 144.583 945.934 139.75C944.767 134.75 942.6 131.167 939.434 129C936.434 126.667 932.1 125.5 926.434 125.5C916.934 125.5 906.767 129.583 895.934 137.75V228.75L910.934 231V246H845.684V231L860.184 228.75V130.75ZM1046.1 84.25C1040.1 84.25 1035.35 82.5 1031.85 79C1028.35 75.5 1026.6 71 1026.6 65.5C1026.6 59.1667 1028.6 53.9167 1032.6 49.75C1036.6 45.5833 1041.93 43.5 1048.6 43.5C1055.27 43.5 1060.35 45.3333 1063.85 49C1067.35 52.5 1069.1 56.9167 1069.1 62.25C1069.1 68.9167 1067.1 74.25 1063.1 78.25C1059.1 82.25 1053.52 84.25 1046.35 84.25H1046.1ZM1032.85 130.75L1015.1 126V109.25L1060.85 103.75H1061.35L1068.35 108.75V229L1085.1 231V246H1015.35V231L1032.85 228.75V130.75ZM1099.77 177.25C1099.77 162.917 1102.6 150.167 1108.27 139C1114.1 127.833 1122.35 119.167 1133.02 113C1143.85 106.667 1156.44 103.5 1170.77 103.5C1177.44 103.5 1183.19 104 1188.02 105C1192.85 106 1198.27 107.333 1204.27 109L1211.52 111L1210.02 153.75H1188.27L1182.02 126.25C1181.02 121.917 1176.1 119.75 1167.27 119.75C1157.94 119.75 1150.6 123.833 1145.27 132C1140.1 140.167 1137.44 152.917 1137.27 170.25C1137.27 188.583 1140.44 202.667 1146.77 212.5C1153.1 222.167 1161.52 227 1172.02 227C1184.69 227 1196.35 223.583 1207.02 216.75L1212.77 229.75C1208.44 234.417 1201.77 238.75 1192.77 242.75C1183.94 246.75 1174.35 248.75 1164.02 248.75C1142.69 248.75 1126.6 242.167 1115.77 229C1105.1 215.833 1099.77 198.583 1099.77 177.25ZM1247.16 63.25L1228.66 60V46.5L1274.91 41H1275.41L1282.16 45.75V229L1300.41 231V246H1229.66V231L1247.16 228.75V63.25ZM1380.62 248.75C1358.62 248.75 1342.2 242.333 1331.37 229.5C1320.7 216.5 1315.37 198.833 1315.37 176.5C1315.37 161.5 1318.12 148.5 1323.62 137.5C1329.29 126.5 1337.2 118.083 1347.37 112.25C1357.54 106.417 1369.29 103.5 1382.62 103.5C1399.29 103.5 1412.12 107.917 1421.12 116.75C1430.12 125.417 1434.79 137.833 1435.12 154C1435.12 165 1434.45 173.167 1433.12 178.5H1351.87C1352.54 193.667 1356.12 205.5 1362.62 214C1369.12 222.333 1378.37 226.5 1390.37 226.5C1396.87 226.5 1403.54 225.417 1410.37 223.25C1417.37 221.083 1422.87 218.5 1426.87 215.5L1433.12 229.25C1428.62 234.083 1421.29 238.583 1411.12 242.75C1401.12 246.75 1390.95 248.75 1380.62 248.75ZM1400.12 163.5C1400.45 158.833 1400.62 155.25 1400.62 152.75C1400.62 130.583 1393.2 119.5 1378.37 119.5C1370.2 119.5 1363.87 122.75 1359.37 129.25C1354.87 135.75 1352.37 147.167 1351.87 163.5H1400.12ZM1482.82 225.5C1484.15 227.5 1487.15 229.417 1491.82 231.25C1496.65 232.917 1501.49 233.75 1506.32 233.75C1514.15 233.75 1519.99 232.167 1523.82 229C1527.82 225.667 1529.82 221.333 1529.82 216C1529.82 210.5 1527.4 206.083 1522.57 202.75C1517.74 199.25 1509.57 195 1498.07 190L1491.07 187C1479.57 182.167 1470.99 176.333 1465.32 169.5C1459.65 162.667 1456.82 153.833 1456.82 143C1456.82 135.5 1459.07 128.833 1463.57 123C1468.07 117 1474.4 112.333 1482.57 109C1490.74 105.667 1500.15 104 1510.82 104C1518.65 104 1525.32 104.5 1530.82 105.5C1536.49 106.5 1542.4 107.833 1548.57 109.5C1551.9 110.667 1554.4 111.333 1556.07 111.5V144.25H1536.32L1530.57 125.25C1529.57 123.583 1527.32 122.083 1523.82 120.75C1520.32 119.417 1516.32 118.75 1511.82 118.75C1504.99 118.75 1499.49 120.25 1495.32 123.25C1491.32 126.083 1489.32 130.083 1489.32 135.25C1489.32 139.917 1490.74 143.833 1493.57 147C1496.4 150 1499.49 152.333 1502.82 154C1506.15 155.667 1512.32 158.417 1521.32 162.25C1530.32 166.083 1537.74 169.75 1543.57 173.25C1549.57 176.75 1554.49 181.333 1558.32 187C1562.32 192.5 1564.32 199.25 1564.32 207.25C1564.32 219.583 1559.49 229.583 1549.82 237.25C1540.15 244.917 1526.24 248.75 1508.07 248.75C1499.57 248.75 1491.9 248 1485.07 246.5C1478.4 245 1470.65 243 1461.82 240.5L1456.32 238.75V205.75H1477.07L1482.82 225.5Z" fill="#0D0A11"/>
<path d="M65.8275 165.058V148.77L81.511 140.066L97.1943 148.77V165.058L81.511 173.762L65.8275 165.058Z" stroke="#0D0A11" stroke-width="5"/>
<path d="M48.8516 139.382L81.2911 120.667L114.17 139.385V175.796L81.2911 194.179L48.8516 175.798V139.382Z" stroke="#0D0A11" stroke-width="5"/>
<path d="M33.7038 130.609L81.511 104.031L129.318 130.609V183.071L81.511 209.429L33.7036 183.071L33.7038 130.609Z" stroke="#0D0A11" stroke-width="5"/>
<path d="M48.9743 139.366L34.1204 130.94" stroke="#0D0A11" stroke-width="5"/>
<path d="M113.98 139.404L129.25 130.743" stroke="#0D0A11" stroke-width="5"/>
<path d="M81.511 193.83V208.959" stroke="#0D0A11" stroke-width="5"/>
<path d="M81.511 227.415V246.126" stroke="#0D0A11" stroke-width="5"/>
<path d="M143.757 122.514L160.026 113.286" stroke="#0D0A11" stroke-width="5"/>
<path d="M19.2682 122.516L3 113.288" stroke="#0D0A11" stroke-width="5"/>
<path d="M19.0042 122.415L81.5127 87.4001L144.021 122.415V192.429L81.5127 227.444L19.0042 192.429V122.415Z" stroke="#0D0A11" stroke-width="5"/>
<path d="M3.07751 113.114L81.5127 68L159.948 113.114V202.133L81.5127 246.845L3.07751 202.133V113.114Z" stroke="#0D0A11" stroke-width="5"/>
</svg>
